<svg fill="none" height="48" viewBox="0 0 39 48" width="39" xmlns="http://www.w3.org/2000/svg"><g stroke="#fff" stroke-linejoin="round" stroke-width="3"><path d="m27.3735 3.34375 10.1265 5.62501-.0007 11.24954m-10.1258-16.87455.002 11.24965m-.002-11.24965-25.8735 13.49965.00196 11.2497m35.99734-7.8748-10.1238-5.6249m10.1238 5.6249-25.8735 13.4996-10.12384-5.6248m25.87354-13.4997-25.87354 13.4997"/><path d="m11.6265 44.9687-10.12649-5.625.0007-11.2495m10.12579 16.8745-.002-11.2496m.002 11.2496 25.8735-13.4996-.002-11.2497m-35.99729 7.8748 10.12379 5.6249m-10.12379-5.6249 25.87349-13.4996 10.1238 5.6248m-25.8735 13.4997 25.8735-13.4997" opacity=".5"/></g></svg>